<?xml version="1.0" encoding="UTF-8"?>
<svg version="1.1" xmlns="http://www.w3.org/2000/svg" width="48" height="48">
<path d="M0 0 C0.82290527 0.00202423 1.64581055 0.00404846 2.49365234 0.00613403 C3.33331543 0.00517731 4.17297852 0.00422058 5.03808594 0.00323486 C6.81689529 0.00255306 8.59570712 0.00440737 10.37451172 0.00857544 C13.10699011 0.01392371 15.83930411 0.00863048 18.57177734 0.00222778 C20.29573604 0.00288856 22.01969464 0.00416973 23.74365234 0.00613403 C24.56655762 0.0041098 25.38946289 0.00208557 26.23730469 0 C32.0037018 0.02399599 32.0037018 0.02399599 33.11865234 1.13894653 C33.2183702 3.05352935 33.24945823 4.9717697 33.25146484 6.88894653 C33.25339844 8.63691528 33.25339844 8.63691528 33.25537109 10.42019653 C33.25150391 11.64738403 33.24763672 12.87457153 33.24365234 14.13894653 C33.24945313 15.97972778 33.24945313 15.97972778 33.25537109 17.85769653 C33.25408203 19.02300903 33.25279297 20.18832153 33.25146484 21.38894653 C33.25033691 22.46660278 33.24920898 23.54425903 33.24804688 24.65457153 C33.11865234 27.13894653 33.11865234 27.13894653 32.11865234 28.13894653 C29.31871637 28.23997908 26.54396591 28.27864741 23.74365234 28.27175903 C22.90398926 28.27271576 22.06432617 28.27367249 21.19921875 28.2746582 C19.4204094 28.27534001 17.64159757 28.2734857 15.86279297 28.26931763 C13.13031458 28.26396936 10.39800058 28.26926259 7.66552734 28.27566528 C5.94156865 28.2750045 4.21761005 28.27372334 2.49365234 28.27175903 C1.67074707 28.27378326 0.8478418 28.2758075 0 28.27789307 C-5.76639711 28.25389708 -5.76639711 28.25389708 -6.88134766 27.13894653 C-6.98106551 25.22436372 -7.01215354 23.30612336 -7.01416016 21.38894653 C-7.01544922 20.22363403 -7.01673828 19.05832153 -7.01806641 17.85769653 C-7.01419922 16.63050903 -7.01033203 15.40332153 -7.00634766 14.13894653 C-7.01021484 12.91175903 -7.01408203 11.68457153 -7.01806641 10.42019653 C-7.01677734 9.25488403 -7.01548828 8.08957153 -7.01416016 6.88894653 C-7.01303223 5.81129028 -7.0119043 4.73363403 -7.01074219 3.62332153 C-6.76365369 -1.12077768 -4.12711838 0.01717438 0 0 Z " fill="#93DDF6" transform="translate(10.88134765625,9.861053466796875)"/>
<path d="M0 0 C0.82290527 0.00202423 1.64581055 0.00404846 2.49365234 0.00613403 C3.33331543 0.00517731 4.17297852 0.00422058 5.03808594 0.00323486 C6.81689529 0.00255306 8.59570712 0.00440737 10.37451172 0.00857544 C13.10699011 0.01392371 15.83930411 0.00863048 18.57177734 0.00222778 C20.29573604 0.00288856 22.01969464 0.00416973 23.74365234 0.00613403 C24.56655762 0.0041098 25.38946289 0.00208557 26.23730469 0 C32.0037018 0.02399599 32.0037018 0.02399599 33.11865234 1.13894653 C33.2183702 3.05352935 33.24945823 4.9717697 33.25146484 6.88894653 C33.25339844 8.63691528 33.25339844 8.63691528 33.25537109 10.42019653 C33.25150391 11.64738403 33.24763672 12.87457153 33.24365234 14.13894653 C33.24945313 15.97972778 33.24945313 15.97972778 33.25537109 17.85769653 C33.25408203 19.02300903 33.25279297 20.18832153 33.25146484 21.38894653 C33.25033691 22.46660278 33.24920898 23.54425903 33.24804688 24.65457153 C33.11865234 27.13894653 33.11865234 27.13894653 32.11865234 28.13894653 C29.31871637 28.23997908 26.54396591 28.27864741 23.74365234 28.27175903 C22.90398926 28.27271576 22.06432617 28.27367249 21.19921875 28.2746582 C19.4204094 28.27534001 17.64159757 28.2734857 15.86279297 28.26931763 C13.13031458 28.26396936 10.39800058 28.26926259 7.66552734 28.27566528 C5.94156865 28.2750045 4.21761005 28.27372334 2.49365234 28.27175903 C1.67074707 28.27378326 0.8478418 28.2758075 0 28.27789307 C-5.76639711 28.25389708 -5.76639711 28.25389708 -6.88134766 27.13894653 C-6.98106551 25.22436372 -7.01215354 23.30612336 -7.01416016 21.38894653 C-7.01544922 20.22363403 -7.01673828 19.05832153 -7.01806641 17.85769653 C-7.01419922 16.63050903 -7.01033203 15.40332153 -7.00634766 14.13894653 C-7.01021484 12.91175903 -7.01408203 11.68457153 -7.01806641 10.42019653 C-7.01677734 9.25488403 -7.01548828 8.08957153 -7.01416016 6.88894653 C-7.01303223 5.81129028 -7.0119043 4.73363403 -7.01074219 3.62332153 C-6.76365369 -1.12077768 -4.12711838 0.01717438 0 0 Z M6.11865234 6.13894653 C6.11865234 7.78894653 6.11865234 9.43894653 6.11865234 11.13894653 C5.45865234 10.80894653 4.79865234 10.47894653 4.11865234 10.13894653 C2.74522404 10.06999933 1.36863133 10.05426945 -0.00634766 10.07644653 C-1.92447266 10.10738403 -1.92447266 10.10738403 -3.88134766 10.13894653 C-5.32342707 13.02310536 -4.97529653 15.55616182 -4.94384766 18.76394653 C-4.93482422 19.95246216 -4.92580078 21.14097778 -4.91650391 22.36550903 C-4.90490234 23.28074341 -4.89330078 24.19597778 -4.88134766 25.13894653 C-1.15463092 26.00126357 2.29683708 26.26757892 6.11865234 26.27175903 C7.25302734 26.2730481 8.38740234 26.27433716 9.55615234 26.27566528 C11.31958984 26.2698645 11.31958984 26.2698645 13.11865234 26.26394653 C14.29427734 26.26781372 15.46990234 26.27168091 16.68115234 26.27566528 C17.81552734 26.27437622 18.94990234 26.27308716 20.11865234 26.27175903 C21.14990234 26.2706311 22.18115234 26.26950317 23.24365234 26.26834106 C25.97454733 26.14543224 28.45970499 25.75419469 31.11865234 25.13894653 C32.20107477 19.72683442 33.21756609 13.88623089 31.11865234 8.63894653 C30.62365234 7.89644653 30.62365234 7.89644653 30.11865234 7.13894653 C29.37615234 7.15957153 28.63365234 7.18019653 27.86865234 7.20144653 C25.11865234 7.13894653 25.11865234 7.13894653 23.43115234 6.63894653 C20.08824557 5.91615588 16.77008753 6.03465196 13.36865234 6.07644653 C12.67126953 6.08095825 11.97388672 6.08546997 11.25537109 6.09011841 C9.54309432 6.10184633 7.83086201 6.11978001 6.11865234 6.13894653 Z " fill="#96E5F6" transform="translate(10.88134765625,9.861053466796875)"/>
<path d="M0 0 C0.82290527 0.00202423 1.64581055 0.00404846 2.49365234 0.00613403 C3.33331543 0.00517731 4.17297852 0.00422058 5.03808594 0.00323486 C6.81689529 0.00255306 8.59570712 0.00440737 10.37451172 0.00857544 C13.10699011 0.01392371 15.83930411 0.00863048 18.57177734 0.00222778 C20.29573604 0.00288856 22.01969464 0.00416973 23.74365234 0.00613403 C24.56655762 0.0041098 25.38946289 0.00208557 26.23730469 0 C32.0037018 0.02399599 32.0037018 0.02399599 33.11865234 1.13894653 C33.20613442 3.06562161 33.22562568 4.99546514 33.21630859 6.92410278 C33.21308594 8.093927 33.20986328 9.26375122 33.20654297 10.46902466 C33.19397461 12.31657349 33.19397461 12.31657349 33.18115234 14.20144653 C33.17664062 15.43701294 33.17212891 16.67257935 33.16748047 17.94558716 C33.15564842 21.0100877 33.13916408 24.07449375 33.11865234 27.13894653 C32.78865234 27.13894653 32.45865234 27.13894653 32.11865234 27.13894653 C32.05806641 26.01875122 31.99748047 24.89855591 31.93505859 23.74441528 C31.8506381 22.2717467 31.76599085 20.7990911 31.68115234 19.32644653 C31.64183594 18.58845825 31.60251953 17.85046997 31.56201172 17.09011841 C31.374842 13.90823312 31.13144442 11.17732275 30.11865234 8.13894653 C28.13865234 8.13894653 26.15865234 8.13894653 24.11865234 8.13894653 C24.44865234 6.81894653 24.77865234 5.49894653 25.11865234 4.13894653 C17.19865234 3.80894653 9.27865234 3.47894653 1.11865234 3.13894653 C1.44865234 4.78894653 1.77865234 6.43894653 2.11865234 8.13894653 C0.13865234 8.13894653 -1.84134766 8.13894653 -3.88134766 8.13894653 C-4.54134766 11.10894653 -5.20134766 14.07894653 -5.88134766 17.13894653 C-6.21134766 17.13894653 -6.54134766 17.13894653 -6.88134766 17.13894653 C-6.90819444 14.49304639 -6.92811122 11.84741558 -6.94384766 9.20144653 C-6.95222656 8.44670044 -6.96060547 7.69195435 -6.96923828 6.91433716 C-6.97787206 4.9890034 -6.93359098 3.06359072 -6.88134766 1.13894653 C-5.03858257 -0.70381855 -2.45171007 0.01020242 0 0 Z " fill="#BBEFF9" transform="translate(10.88134765625,9.861053466796875)"/>
<path d="M0 0 C4.31325787 1.8987305 7.45411997 5.26168208 10.25390625 8.9921875 C10.25390625 9.6521875 10.25390625 10.3121875 10.25390625 10.9921875 C1.67390625 10.9921875 -6.90609375 10.9921875 -15.74609375 10.9921875 C-14.53107192 6.13210019 -12.83367784 4.48944438 -9.05859375 1.375 C-5.81613828 -0.56390073 -3.66754113 -0.72712989 0 0 Z " fill="#43C5F0" transform="translate(26.74609375,25.0078125)"/>
<path d="M0 0 C1.258125 -0.04125 2.51625 -0.0825 3.8125 -0.125 C4.52019531 -0.14820312 5.22789063 -0.17140625 5.95703125 -0.1953125 C8 0 8 0 11 2 C9.66182195 5.97968575 7.99662286 8.38748762 5 11.3125 C4.29875 12.00988281 3.5975 12.70726562 2.875 13.42578125 C1 15 1 15 -1 15 C-1.02693575 12.87506859 -1.04636628 10.75004088 -1.0625 8.625 C-1.07410156 7.44164062 -1.08570313 6.25828125 -1.09765625 5.0390625 C-1 2 -1 2 0 0 Z " fill="#6CE1F2" transform="translate(7,20)"/>
<path d="M0 0 C0.33 0 0.66 0 1 0 C1 2.97 1 5.94 1 9 C2.98 8.34 4.96 7.68 7 7 C7 7.66 7 8.32 7 9 C15.58 9 24.16 9 33 9 C33.33 8.34 33.66 7.68 34 7 C35.32 7.33 36.64 7.66 38 8 C38 6.02 38 4.04 38 2 C38.33 2 38.66 2 39 2 C39 4.97 39 7.94 39 11 C33.60653012 11.02464849 28.21309275 11.04283531 22.81958008 11.05493164 C20.98331125 11.05997231 19.14704646 11.06680477 17.31079102 11.07543945 C14.67723599 11.08751672 12.04373384 11.09323081 9.41015625 11.09765625 C8.17109276 11.10539818 8.17109276 11.10539818 6.90699768 11.11329651 C4.93763632 11.11349205 2.96838386 11.06204152 1 11 C0 10 0 10 -0.09765625 7.71484375 C-0.08605469 6.79832031 -0.07445312 5.88179687 -0.0625 4.9375 C-0.05347656 4.01839844 -0.04445312 3.09929688 -0.03515625 2.15234375 C-0.02355469 1.44207031 -0.01195312 0.73179688 0 0 Z " fill="#96B9FB" transform="translate(4,27)"/>
<path d="M0 0 C1.40668945 0.00966797 1.40668945 0.00966797 2.84179688 0.01953125 C4.30649414 0.04466797 4.30649414 0.04466797 5.80078125 0.0703125 C6.78884766 0.07933594 7.77691406 0.08835937 8.79492188 0.09765625 C11.2346189 0.1212282 13.67382822 0.15413228 16.11328125 0.1953125 C16.77328125 1.5153125 17.43328125 2.8353125 18.11328125 4.1953125 C9.53328125 4.1953125 0.95328125 4.1953125 -7.88671875 4.1953125 C-7.88671875 3.5353125 -7.88671875 2.8753125 -7.88671875 2.1953125 C-4.63281887 0.02604591 -3.75275918 -0.04548799 0 0 Z " fill="#4096F5" transform="translate(18.88671875,31.8046875)"/>
<path d="M0 0 C4.95 0 9.9 0 15 0 C13.84951796 4.60192814 12.95802585 5.57121141 9 8 C5.22019343 7.9078096 2.66799524 6.66799524 0 4 C0 2.68 0 1.36 0 0 Z " fill="#69E1F1" transform="translate(17,16)"/>
<path d="M0 0 C5.39346988 -0.02464849 10.78690725 -0.04283531 16.18041992 -0.05493164 C18.01668875 -0.05997231 19.85295354 -0.06680477 21.68920898 -0.07543945 C24.32276401 -0.08751672 26.95626616 -0.09323081 29.58984375 -0.09765625 C30.41588608 -0.10281754 31.24192841 -0.10797882 32.09300232 -0.11329651 C34.06236368 -0.11349205 36.03161614 -0.06204152 38 0 C39 1 39 1 39.09765625 2.84765625 C39.06510417 4.8984375 39.03255208 6.94921875 39 9 C38.34 8.34 37.68 7.68 37 7 C37 6.01 37 5.02 37 4 C36.01 3.67 35.02 3.34 34 3 C34.33 2.34 34.66 1.68 35 1 C24.44 1 13.88 1 3 1 C3 1.66 3 2.32 3 3 C1.68 3.33 0.36 3.66 -1 4 C-0.67 2.68 -0.34 1.36 0 0 Z " fill="#DEF7FD" transform="translate(5,10)"/>
<path d="M0 0 C1.47906892 -0.02689216 2.95827483 -0.04634621 4.4375 -0.0625 C5.26121094 -0.07410156 6.08492187 -0.08570312 6.93359375 -0.09765625 C9 0 9 0 10 1 C10.07179964 2.51928038 10.08392007 4.04167482 10.0625 5.5625 C10.05347656 6.38878906 10.04445313 7.21507812 10.03515625 8.06640625 C10.02355469 8.70449219 10.01195312 9.34257813 10 10 C6.82028869 8.62442924 4.95149011 7.10041354 2.75 4.4375 C1.96882813 3.50744141 1.96882813 3.50744141 1.171875 2.55859375 C0 1 0 1 0 0 Z " fill="#4DD3EF" transform="translate(32,25)"/>
<path d="M0 0 C2.97 0 5.94 0 9 0 C7.03699519 3.92600963 5.22611601 6.09649559 2 9 C1.34 9 0.68 9 0 9 C0 6.03 0 3.06 0 0 Z " fill="#4BD1EF" transform="translate(6,26)"/>
<path d="M0 0 C1.8871875 0.061875 1.8871875 0.061875 3.8125 0.125 C4.1425 2.105 4.4725 4.085 4.8125 6.125 C1.1825 5.795 -2.4475 5.465 -6.1875 5.125 C-6.5175 4.135 -6.8475 3.145 -7.1875 2.125 C-4.09861478 0.06574319 -3.47814073 -0.1140374 0 0 Z " fill="#70E2F2" transform="translate(37.1875,19.875)"/>
<path d="M0 0 C7.26 0 14.52 0 22 0 C21.34 1.32 20.68 2.64 20 4 C19.67 3.34 19.34 2.68 19 2 C14.05 2 9.1 2 4 2 C3.67 2.99 3.34 3.98 3 5 C2.01 3.35 1.02 1.7 0 0 Z " fill="#81E5F4" transform="translate(13,14)"/>
<path d="M0 0 C1.75 0.6953125 1.75 0.6953125 2.75 2.6953125 C1.94175781 2.70949219 1.13351563 2.72367188 0.30078125 2.73828125 C-6.73929122 2.78146454 -6.73929122 2.78146454 -12.5 6.2578125 C-13.0775 7.0621875 -13.655 7.8665625 -14.25 8.6953125 C-14.91 8.3653125 -15.57 8.0353125 -16.25 7.6953125 C-11.16169006 2.1980131 -7.74387183 -1.47886441 0 0 Z " fill="#64D7F2" transform="translate(27.25,25.3046875)"/>
<path d="M0 0 C2.05078125 0.03255208 4.1015625 0.06510417 6.15234375 0.09765625 C5.46484375 2.03515625 5.46484375 2.03515625 4.15234375 4.09765625 C1.52734375 4.84765625 1.52734375 4.84765625 -0.84765625 5.09765625 C-1.50765625 3.77765625 -2.16765625 2.45765625 -2.84765625 1.09765625 C-1.84765625 0.09765625 -1.84765625 0.09765625 0 0 Z " fill="#4ACAF0" transform="translate(22.84765625,18.90234375)"/>
<path d="M0 0 C0.99 0.99 1.98 1.98 3 3 C-0.63 6.3 -4.26 9.6 -8 13 C-8.66 12.67 -9.32 12.34 -10 12 C-9.52949219 11.55269531 -9.05898437 11.10539062 -8.57421875 10.64453125 C-5.14923351 7.31882095 -2.21128342 4.29249134 0 0 Z " fill="#A4E2F7" transform="translate(18,22)"/>
<path d="M0 0 C1.65 0 3.3 0 5 0 C5 1.65 5 3.3 5 5 C3.0625 4.1875 3.0625 4.1875 1 3 C0.67 2.01 0.34 1.02 0 0 Z " fill="#4AAEF4" transform="translate(37,30)"/>
<path d="M0 0 C1.65 0 3.3 0 5 0 C4.1875 1.9375 4.1875 1.9375 3 4 C2.01 4.33 1.02 4.66 0 5 C0 3.35 0 1.7 0 0 Z " fill="#48ADF4" transform="translate(6,30)"/>
<path d="M0 0 C1.65 1.65 3.3 3.3 5 5 C4.67 5.66 4.34 6.32 4 7 C3.34 6.34 2.68 5.68 2 5 C-0.06874034 4.3574765 -0.06874034 4.3574765 -2 4 C-1.34 2.68 -0.68 1.36 0 0 Z " fill="#A4E8F7" transform="translate(29,22)"/>
<path d="M0 0 C3.96 0 7.92 0 12 0 C11.67 0.66 11.34 1.32 11 2 C7.33333333 2 3.66666667 2 0 2 C0 1.34 0 0.68 0 0 Z " fill="#55DCF0" transform="translate(18,18)"/>
</svg>
